<?xml version="1.0" encoding="utf-8"?>
<svg version="1.1" xmlns="http://www.w3.org/2000/svg" xmlns:xlink="http://www.w3.org/1999/xlink" x="0px" y="0px" width="35px"
	 height="28px" viewBox="0 0 35 28" enable-background="new 0 0 35 28" xml:space="preserve">
<g id="caglogo">
	<path fill="#9A9A9D" d="M29.264,5.55c-2.82-2.75-5.807-5.356-8.555-5.238c-2.418-0.023-4.883,1.896-7.395,4.171
		c-1.92,1.825-3.887,3.863-5.119,5.783c-0.071,0.094-0.047,0.284,0.166,0.284c0.972,0,3.649,0,3.887,0
		c0.308,0,0.355-0.19,0.426-0.284c1.801-2.82,4.93-5.333,7.986-5.356c2.086-0.023,4.076,1.114,5.783,2.678
		c1.683,1.588,3.057,3.555,3.365,5.593c0.119,0.734,0.143,0.971,0.023,1.824c-0.284,2.063-1.658,4.053-3.342,5.664
		c-1.706,1.588-3.721,2.75-5.83,2.726c-2.109-0.023-4.266-1.231-5.972-2.892c-0.119-0.094-0.142-0.166-0.285-0.283
		c-0.64-0.664-1.208-1.375-1.683-2.134c-0.071-0.095-0.189-0.284-0.545-0.284c-0.332,0-3.507,0-3.768,0s-0.237,0.189-0.166,0.284
		c1.256,1.92,3.199,3.958,5.119,5.759c2.488,2.252,4.93,4.148,7.348,4.124c2.748,0.118,5.734-2.488,8.555-5.237
		c2.725-2.844,5.309-5.83,5.237-8.58C34.572,11.38,31.988,8.394,29.264,5.55z"/>
	<circle fill="#9A9A9D" cx="20.732" cy="14.129" r="2.891"/>
	<path fill="#0098D4" d="M27.201,15.954c-0.26,0-1.563,0-1.824,0c-0.237,0-0.379,0.189-0.427,0.284
		c-0.829,1.518-2.44,2.654-4.218,2.654c-2.513-0.023-4.741-2.251-4.764-4.763c0.023-2.488,2.275-4.74,4.764-4.763
		c1.753,0,3.365,1.137,4.194,2.654c0.047,0.095,0.165,0.285,0.45,0.285c0.284,0,1.517,0,1.801,0c0.285,0,0.262-0.189,0.213-0.308
		c-1.113-2.631-3.862-4.977-6.682-5.001c-1.803-0.023-3.485,0.948-4.835,2.275c-1.327,1.351-2.299,3.057-2.275,4.834
		c-0.023,1.801,0.948,3.508,2.275,4.835c1.351,1.327,3.057,2.299,4.835,2.275c2.819-0.024,5.592-2.37,6.682-5.001
		C27.463,16.144,27.463,15.954,27.201,15.954z"/>
	<path fill="#0098D4" d="M12.034,16.12c0,0.142-0.119,0.261-0.261,0.261H6.726c-0.143,0-0.261-0.119-0.261-0.261v-3.981
		c0-0.142,0.118-0.261,0.261-0.261h5.024c0.143,0,0.261,0.119,0.261,0.261v3.981H12.034z"/>
	<path fill="#0098D4" d="M5.066,16.12c0,0.142-0.118,0.261-0.261,0.261h-5.048c-0.142,0-0.261-0.119-0.261-0.261v-3.981
		c0-0.142,0.119-0.261,0.261-0.261h5.024c0.142,0,0.261,0.119,0.261,0.261v3.981H5.066z"/>
</g>
</svg>
