<?xml version="1.0" encoding="utf-8"?>
<svg version="1.1" xmlns="http://www.w3.org/2000/svg" xmlns:xlink="http://www.w3.org/1999/xlink" x="0px" y="0px" width="600px"
	 height="480px" viewBox="0 0 600 480" enable-background="new 0 0 600 480" xml:space="preserve">
<g id="Ebene_1" display="none">
	<path id="t3console" display="inline" fill="#FF8700" d="M0,100C0,44.773,44.782,0,100.011,0h399.978C555.222,0,600,44.773,600,100
		v280c0,55.228-44.782,100-100.011,100H100.011C44.778,480,0,435.227,0,380V100z M40,100v280c0,33.135,26.869,60,60.011,60h399.978
		c33.14,0,60.011-26.865,60.011-60V100c0-33.134-26.868-60-60.011-60H100.011C66.872,40,40,66.866,40,100z M169.464,174.901
		l-60.635-34.304c-8.652-4.895-11.698-15.877-6.803-24.53c4.895-8.652,15.877-11.698,24.53-6.803l87.516,49.512
		c12.003,6.791,12.224,24.004,0.399,31.101l-87.516,52.522c-8.524,5.115-19.581,2.352-24.696-6.172
		c-5.116-8.524-2.353-19.581,6.171-24.696L169.464,174.901z M231.845,296c-11.046,0-20-8.954-20-20s8.954-20,20-20h92.967
		c11.046,0,20,8.954,20,20s-8.954,20-20,20H231.845z"/>
</g>
<g id="Ebene_2">
	<path fill="#9A9A9D" d="M493.875,103.516c-46.698-45.521-96.142-88.687-141.66-86.724c-40.03-0.391-80.838,31.395-122.437,69.065
		c-31.786,30.217-64.356,63.965-84.762,95.753c-1.178,1.564-0.785,4.707,2.746,4.707c16.089,0,60.432,0,64.356,0
		c5.102,0,5.887-3.142,7.064-4.707c29.824-46.698,81.623-88.295,132.246-88.689c34.532-0.391,67.491,18.445,95.749,44.343
		c27.859,26.293,50.619,58.864,55.723,92.613c1.963,12.162,2.355,16.086,0.394,30.215c-4.711,34.139-27.47,67.103-55.33,93.787
		c-28.257,26.291-61.614,45.522-96.535,45.125c-34.926-0.39-70.638-20.398-98.891-47.87c-1.962-1.573-2.353-2.748-4.709-4.71
		c-10.595-10.987-20.013-22.76-27.861-35.32c-1.178-1.568-3.14-4.705-9.027-4.705c-5.493,0-58.076,0-62.394,0
		c-4.315,0-3.924,3.137-2.747,4.705c20.797,31.788,52.977,65.539,84.763,95.359c41.203,37.282,81.622,68.673,121.652,68.279
		c45.519,1.963,94.962-41.201,141.66-86.724c45.126-47.089,87.901-96.536,86.721-142.056
		C581.776,200.052,539.001,150.606,493.875,103.516z"/>
	<path fill="#9A9A9D" d="M352.604,197.696c26.443,0,47.874,21.436,47.874,47.878c0,26.439-21.431,47.87-47.874,47.87
		s-47.875-21.431-47.875-47.87C304.729,219.131,326.16,197.696,352.604,197.696z"/>
	<path fill="#0098D4" d="M459.736,275.785c-4.322,0-25.901,0-30.219,0c-3.925,0-6.275,3.142-7.063,4.711
		c-13.735,25.115-40.419,43.954-69.852,43.954c-41.595-0.397-78.482-37.281-78.876-78.876c0.394-41.205,37.671-78.486,78.876-78.875
		c29.039,0,55.723,18.834,69.458,43.945c0.782,1.574,2.745,4.711,7.456,4.711c4.71,0,25.114,0,29.82,0
		c4.712,0,4.322-3.138,3.536-5.1c-18.446-43.561-63.965-82.409-110.659-82.803c-29.826-0.39-57.69,15.698-80.056,37.673
		c-21.975,22.371-38.065,50.624-37.672,80.051c-0.394,29.826,15.697,58.078,37.672,80.056
		c22.366,21.978,50.624,38.064,80.056,37.675c46.694-0.397,92.606-39.243,110.659-82.8
		C464.05,278.927,464.05,275.785,459.736,275.785z"/>
	<path fill="#0098D4" d="M208.587,278.533c0,2.356-1.962,4.318-4.317,4.318h-83.584c-2.356,0-4.318-1.962-4.318-4.318v-65.926
		c0-2.352,1.962-4.313,4.318-4.313h83.193c2.354,0,4.315,1.962,4.315,4.313v65.926H208.587z"/>
	<path fill="#0098D4" d="M93.216,278.533c0,2.356-1.962,4.318-4.318,4.318H5.314c-2.355,0-4.318-1.962-4.318-4.318v-65.926
		c0-2.352,1.962-4.313,4.318-4.313h83.191c2.356,0,4.317,1.962,4.317,4.313v65.926H93.216z"/>
</g>
</svg>
